<svg width="114" height="35" viewBox="0 0 114 35" fill="none" xmlns="http://www.w3.org/2000/svg">
<path fill-rule="evenodd" clip-rule="evenodd" d="M24.8598 24.5091C26.2026 22.4995 26.9192 20.1369 26.9192 17.72C26.9192 14.4791 25.6318 11.3708 23.3401 9.07915C21.0484 6.78746 17.9402 5.5 14.6993 5.5C12.2824 5.5 9.91975 6.21669 7.91018 7.55944C5.90062 8.90219 4.33435 10.8107 3.40945 13.0436C2.48454 15.2765 2.24255 17.7336 2.71406 20.104C2.84899 20.7823 3.04061 21.4448 3.28547 22.0851C3.29494 22.0617 3.30446 22.0384 3.31403 22.0151C3.3882 22.2642 3.47146 22.5101 3.56359 22.7524C4.0007 23.7196 4.56288 24.6279 5.2373 25.453C5.24323 25.4527 5.24915 25.4523 5.25508 25.4518C5.42045 25.4412 5.58486 25.4189 5.74708 25.385C6.10585 25.3082 6.45849 25.2052 6.80214 25.0767C7.15832 24.946 7.51477 24.7949 7.86829 24.6295C8.58312 24.2912 9.27986 23.9159 9.9557 23.5051C10.6391 23.0937 11.3099 22.653 11.9686 22.1911C13.2899 21.2593 14.5615 20.2589 15.7782 19.1941C14.7107 20.4252 13.5795 21.5996 12.3893 22.7124C11.7902 23.2692 11.1722 23.81 10.5312 24.3284C9.88639 24.8537 9.21469 25.3451 8.51882 25.8006C8.16571 26.0295 7.80178 26.248 7.42075 26.4512C7.14682 26.5988 6.86554 26.7323 6.57804 26.851C8.19924 28.2929 10.1788 29.2802 12.3152 29.7052C14.6857 30.1767 17.1427 29.9347 19.3756 29.0098C21.6086 28.0849 23.5171 26.5186 24.8598 24.5091ZM22.8429 17.4402L22.5503 17.7333L22.6947 19.6595L22.2634 20.0914L21.2517 16.5746L20.437 15.566C19.3603 16.4688 17.7326 17.8878 17.7326 17.8878L17.9569 19.7961L17.6666 20.087L16.8219 18.7114C16.784 18.7536 16.7356 18.7848 16.6815 18.8019C16.6275 18.8189 16.5699 18.8212 16.5147 18.8084C16.2507 19.0728 16.0131 18.9582 16.0131 18.9582C16.0131 18.9582 15.8988 18.7203 16.1627 18.4558C16.1498 18.4004 16.152 18.3426 16.169 18.2884C16.186 18.2341 16.2173 18.1854 16.2595 18.1473L14.8863 17.3014L15.1773 17.0107L17.0822 17.2354C17.0822 17.2354 18.4987 15.6048 19.4 14.5262L18.3931 13.7098L14.8826 12.6961L15.3137 12.2642L17.236 12.4102L17.5286 12.117C17.5701 12.0756 17.6264 12.0524 17.685 12.0524C17.7436 12.0525 17.7998 12.0758 17.8413 12.1173C17.8827 12.1588 17.9059 12.2151 17.9059 12.2737C17.9058 12.3323 17.8825 12.3885 17.841 12.43L17.8168 12.4541L19.0602 12.5476L19.354 12.253C19.3746 12.2325 19.3989 12.2162 19.4258 12.2051C19.4526 12.1941 19.4814 12.1884 19.5104 12.1884C19.5394 12.1884 19.5682 12.1942 19.595 12.2053C19.6218 12.2164 19.6461 12.2327 19.6667 12.2533C19.6872 12.2738 19.7034 12.2982 19.7145 12.325C19.7256 12.3519 19.7313 12.3806 19.7313 12.4096C19.7313 12.4387 19.7255 12.4674 19.7144 12.4942C19.7032 12.521 19.6869 12.5454 19.6664 12.5659L19.6408 12.5916L21.1136 12.7031C21.8748 11.8947 22.4807 11.2543 22.6254 11.1094C23.1972 10.5365 24.0639 10.7173 24.1519 10.8053C24.2399 10.8933 24.4202 11.7615 23.8483 12.3345C23.7037 12.4794 23.0644 13.0864 22.2574 13.8489L22.3687 15.3239L22.3943 15.2983C22.4358 15.2568 22.4921 15.2336 22.5507 15.2336C22.6093 15.2337 22.6655 15.257 22.707 15.2985C22.7484 15.34 22.7716 15.3963 22.7716 15.4549C22.7715 15.5135 22.7482 15.5697 22.7067 15.6112L22.4129 15.9058L22.5064 17.1514L22.5305 17.1272C22.5511 17.1067 22.5755 17.0905 22.6023 17.0794C22.6291 17.0683 22.6579 17.0626 22.6869 17.0626C22.716 17.0627 22.7447 17.0684 22.7715 17.0795C22.7983 17.0907 22.8227 17.107 22.8432 17.1275C22.8637 17.1481 22.88 17.1724 22.8911 17.1993C22.9021 17.2261 22.9078 17.2549 22.9078 17.2839C22.9078 17.3129 22.902 17.3417 22.8909 17.3685C22.8798 17.3953 22.8635 17.4196 22.8429 17.4402Z" fill="#F04037"/>
<mask id="path-2-outside-1_23_49" maskUnits="userSpaceOnUse" x="31.0681" y="8.94531" width="78" height="21" fill="black">
<rect fill="white" x="31.0681" y="8.94531" width="78" height="21"/>
<path fill-rule="evenodd" clip-rule="evenodd" d="M37.934 24.4588C39.4122 24.4588 40.5544 24.0959 41.3608 23.3702C41.7525 23.0268 42.0639 22.6013 42.2729 22.1241C42.4819 21.6469 42.5834 21.1295 42.5702 20.6087C42.5822 19.7962 42.3034 19.0062 41.7841 18.3813C41.2828 17.7567 40.5752 17.3315 39.7885 17.1819C40.4627 17.0007 41.0689 16.6258 41.5321 16.1034C42.0092 15.5726 42.2477 14.8638 42.2477 13.9768C42.2611 13.4829 42.164 12.9921 41.9634 12.5405C41.7629 12.0889 41.464 11.6878 41.0886 11.3664C40.3159 10.6878 39.1972 10.3485 37.7324 10.3485H32.0681V24.4588H37.934ZM34.6483 12.4247H37.3091C38.0751 12.4247 38.6496 12.596 39.0326 12.9387C39.2251 13.1158 39.3764 13.3332 39.4757 13.5753C39.575 13.8173 39.6198 14.0783 39.607 14.3397C39.623 14.6068 39.5787 14.874 39.4775 15.1217C39.3764 15.3695 39.2208 15.5913 39.0225 15.7708C38.6328 16.1068 38.0751 16.2748 37.3494 16.2748H34.6483V12.4247ZM34.6483 18.2099H37.4905C38.243 18.2099 38.8411 18.3981 39.2845 18.7743C39.5059 18.9656 39.6809 19.2047 39.7961 19.4737C39.9114 19.7426 39.9639 20.0342 39.9497 20.3265C39.9653 20.6086 39.9162 20.8906 39.8061 21.1509C39.6961 21.4111 39.528 21.6428 39.3148 21.8282C38.8914 22.1843 38.2968 22.3624 37.5308 22.3624H34.6483V18.2099ZM52.1652 24.0354C52.9364 23.5999 53.5741 22.9622 54.0096 22.191C54.472 21.3562 54.705 20.4138 54.6849 19.4597C54.705 18.5056 54.472 17.5632 54.0096 16.7283C53.576 15.9591 52.9421 15.3218 52.1753 14.8839C51.3781 14.4475 50.4838 14.2187 49.575 14.2187C48.6661 14.2187 47.7718 14.4475 46.9746 14.8839C46.2061 15.3229 45.5692 15.9598 45.1302 16.7283C44.6612 17.561 44.4245 18.5043 44.4449 19.4597C44.4244 20.4138 44.6574 21.3563 45.1201 22.191C45.5534 22.9605 46.1874 23.598 46.9545 24.0354C47.7535 24.4719 48.6494 24.7007 49.5598 24.7007C50.4703 24.7007 51.3662 24.4719 52.1652 24.0354ZM47.8213 21.7073C47.3305 21.2033 47.0852 20.4541 47.0855 19.4597C47.0858 18.4652 47.331 17.7161 47.8213 17.2121C48.0457 16.9735 48.3167 16.7833 48.6174 16.6533C48.9181 16.5233 49.2423 16.4562 49.5699 16.4562C49.8976 16.4562 50.2217 16.5233 50.5225 16.6533C50.8232 16.7833 51.0941 16.9735 51.3186 17.2121C51.8158 17.7161 52.0644 18.4652 52.0644 19.4597C52.0644 20.4541 51.8158 21.2033 51.3186 21.7073C51.0941 21.9472 50.8225 22.1383 50.5207 22.2684C50.2189 22.3984 49.8935 22.4648 49.5649 22.4632C49.2376 22.4654 48.9135 22.3993 48.6133 22.2691C48.313 22.1389 48.0433 21.9477 47.8213 21.7073ZM64.421 24.0354C65.1923 23.6 65.83 22.9623 66.2654 22.191C66.7279 21.3563 66.9609 20.4138 66.9407 19.4597C66.9609 18.5056 66.7279 17.5631 66.2654 16.7283C65.8319 15.959 65.198 15.3216 64.4311 14.8839C63.6339 14.4475 62.7396 14.2187 61.8308 14.2187C60.9219 14.2187 60.0276 14.4475 59.2304 14.8839C58.462 15.323 57.8251 15.9599 57.386 16.7283C56.9171 17.561 56.6804 18.5043 56.7007 19.4597C56.6803 20.4138 56.9133 21.3563 57.3759 22.191C57.8093 22.9604 58.4433 23.5978 59.2103 24.0354C60.0093 24.4719 60.9052 24.7007 61.8156 24.7007C62.7261 24.7007 63.622 24.4719 64.421 24.0354ZM60.077 21.7073C59.5864 21.2033 59.3412 20.4541 59.3413 19.4597C59.3414 18.4652 59.5867 17.7161 60.077 17.2121C60.3015 16.9735 60.5725 16.7833 60.8732 16.6533C61.1739 16.5233 61.4981 16.4562 61.8257 16.4562C62.1533 16.4562 62.4775 16.5233 62.7782 16.6533C63.079 16.7833 63.3499 16.9735 63.5744 17.2121C64.0716 17.7161 64.3202 18.4652 64.3202 19.4597C64.3202 20.4541 64.0716 21.2033 63.5744 21.7073C63.3499 21.9473 63.0783 22.1383 62.7765 22.2684C62.4747 22.3985 62.1493 22.4648 61.8207 22.4632C61.4934 22.4654 61.1692 22.3994 60.8689 22.2692C60.5686 22.139 60.2987 21.9475 60.0766 21.707L60.077 21.7073ZM71.8591 24.4588V19.4395L75.9108 24.4588H79.136L74.3788 19.0162L78.4708 14.4606H75.4069L71.8591 18.5123V9.94531H69.279V24.4588H71.8591ZM83.3187 12.4852C83.4664 12.3499 83.5833 12.1846 83.6616 12.0003C83.7398 11.8159 83.7776 11.617 83.7723 11.4168C83.7781 11.2181 83.7406 11.0204 83.6623 10.8376C83.5839 10.6549 83.4667 10.4914 83.3187 10.3585C82.9915 10.0913 82.5821 9.94537 82.1597 9.94537C81.7372 9.94537 81.3278 10.0913 81.0006 10.3585C80.8526 10.4914 80.7354 10.6549 80.6571 10.8376C80.5787 11.0204 80.5412 11.2181 80.5471 11.4168C80.5418 11.617 80.5795 11.8159 80.6578 12.0003C80.736 12.1846 80.8529 12.3499 81.0006 12.4852C81.3249 12.7583 81.7353 12.9082 82.1594 12.9082C82.5834 12.9082 82.9938 12.7583 83.3181 12.4852H83.3187ZM83.4497 24.4588V14.4606H80.8696V24.4588H83.4497ZM88.7713 24.4588V19.2984C88.7713 18.3846 89.0032 17.6724 89.4668 17.1617C89.6904 16.9118 89.9659 16.7137 90.274 16.5814C90.5822 16.4491 90.9155 16.3857 91.2507 16.3957C91.9898 16.3957 92.5341 16.6242 92.8835 17.0811C93.2329 17.538 93.4076 18.1965 93.4076 19.0565V24.4588H95.9878V18.8146C95.9878 17.3095 95.6451 16.1673 94.9597 15.3879C94.2744 14.6084 93.3135 14.2187 92.0772 14.2187C91.3535 14.2009 90.6388 14.3822 90.011 14.7428C89.4404 15.0777 88.9757 15.5668 88.6706 16.1538L88.469 14.4606H86.1912V24.4588H88.7713ZM104.887 20.9917C105.469 20.6969 105.955 20.2424 106.288 19.6814C106.591 19.1455 106.757 18.5431 106.771 17.9277C106.785 17.3123 106.647 16.703 106.369 16.1538L108.082 16.0329V14.4606H104.293C103.785 14.2956 103.254 14.2139 102.72 14.2187C101.959 14.1962 101.204 14.3624 100.523 14.7025C99.9456 14.9978 99.462 15.4488 99.1272 16.0045C98.7924 16.5602 98.6196 17.1984 98.6284 17.8471C98.6144 18.3465 98.7121 18.8427 98.9144 19.2996C99.1167 19.7564 99.4184 20.1623 99.7975 20.4877L98.0438 22.3422V22.8058C98.2019 22.9623 98.374 23.104 98.5578 23.2291C98.7777 23.3775 99.0104 23.5057 99.2533 23.6121C98.3798 24.2706 97.943 25.05 97.943 25.9504C97.9207 26.4305 98.0312 26.9075 98.2624 27.3289C98.4936 27.7503 98.8364 28.0999 99.2533 28.3391C100.127 28.8699 101.276 29.1353 102.7 29.1353C103.748 29.1353 104.608 28.9707 105.28 28.6415C105.892 28.3649 106.41 27.9167 106.772 27.3514C107.087 26.8464 107.255 26.2634 107.256 25.6682C107.256 24.7678 106.953 24.0623 106.349 23.5517C105.744 23.041 104.776 22.7252 103.446 22.6043C102.573 22.5236 101.941 22.443 101.551 22.3624C101.23 22.3046 100.918 22.2028 100.624 22.06L101.37 21.3142C101.811 21.4248 102.265 21.479 102.72 21.4754C103.471 21.494 104.215 21.3279 104.886 20.9917H104.887ZM101.39 19.0767C101.23 18.9183 101.103 18.7299 101.017 18.5224C100.93 18.3148 100.886 18.0921 100.886 17.8672C100.886 17.6424 100.93 17.4197 101.017 17.2121C101.103 17.0045 101.23 16.8161 101.39 16.6578C101.768 16.3614 102.24 16.2111 102.72 16.2345C103.19 16.2165 103.651 16.3666 104.02 16.6578C104.183 16.8145 104.312 17.0024 104.401 17.2102C104.489 17.418 104.534 17.6414 104.534 17.8672C104.534 18.093 104.489 18.3165 104.401 18.5243C104.312 18.7321 104.183 18.92 104.02 19.0767C103.651 19.3679 103.19 19.518 102.72 19.5C102.24 19.5233 101.768 19.373 101.39 19.0767H101.39ZM100.553 24.9022C100.771 24.6033 101.058 24.3614 101.39 24.1967C101.86 24.2773 102.371 24.3378 102.922 24.3781C103.701 24.4319 104.222 24.5797 104.484 24.8216C104.611 24.9355 104.712 25.0755 104.78 25.2321C104.848 25.3887 104.881 25.5581 104.877 25.7287C104.879 25.9429 104.824 26.1538 104.718 26.3397C104.612 26.5257 104.458 26.6801 104.272 26.787C103.798 27.0679 103.251 27.2045 102.7 27.18C102.11 27.1986 101.525 27.0704 100.997 26.8071C100.784 26.7088 100.605 26.5504 100.482 26.3517C100.358 26.1529 100.295 25.9223 100.301 25.6884C100.305 25.4072 100.392 25.1334 100.552 24.9022H100.553Z"/>
</mask>
<path fill-rule="evenodd" clip-rule="evenodd" d="M37.934 24.4588C39.4122 24.4588 40.5544 24.0959 41.3608 23.3702C41.7525 23.0268 42.0639 22.6013 42.2729 22.1241C42.4819 21.6469 42.5834 21.1295 42.5702 20.6087C42.5822 19.7962 42.3034 19.0062 41.7841 18.3813C41.2828 17.7567 40.5752 17.3315 39.7885 17.1819C40.4627 17.0007 41.0689 16.6258 41.5321 16.1034C42.0092 15.5726 42.2477 14.8638 42.2477 13.9768C42.2611 13.4829 42.164 12.9921 41.9634 12.5405C41.7629 12.0889 41.464 11.6878 41.0886 11.3664C40.3159 10.6878 39.1972 10.3485 37.7324 10.3485H32.0681V24.4588H37.934ZM34.6483 12.4247H37.3091C38.0751 12.4247 38.6496 12.596 39.0326 12.9387C39.2251 13.1158 39.3764 13.3332 39.4757 13.5753C39.575 13.8173 39.6198 14.0783 39.607 14.3397C39.623 14.6068 39.5787 14.874 39.4775 15.1217C39.3764 15.3695 39.2208 15.5913 39.0225 15.7708C38.6328 16.1068 38.0751 16.2748 37.3494 16.2748H34.6483V12.4247ZM34.6483 18.2099H37.4905C38.243 18.2099 38.8411 18.3981 39.2845 18.7743C39.5059 18.9656 39.6809 19.2047 39.7961 19.4737C39.9114 19.7426 39.9639 20.0342 39.9497 20.3265C39.9653 20.6086 39.9162 20.8906 39.8061 21.1509C39.6961 21.4111 39.528 21.6428 39.3148 21.8282C38.8914 22.1843 38.2968 22.3624 37.5308 22.3624H34.6483V18.2099ZM52.1652 24.0354C52.9364 23.5999 53.5741 22.9622 54.0096 22.191C54.472 21.3562 54.705 20.4138 54.6849 19.4597C54.705 18.5056 54.472 17.5632 54.0096 16.7283C53.576 15.9591 52.9421 15.3218 52.1753 14.8839C51.3781 14.4475 50.4838 14.2187 49.575 14.2187C48.6661 14.2187 47.7718 14.4475 46.9746 14.8839C46.2061 15.3229 45.5692 15.9598 45.1302 16.7283C44.6612 17.561 44.4245 18.5043 44.4449 19.4597C44.4244 20.4138 44.6574 21.3563 45.1201 22.191C45.5534 22.9605 46.1874 23.598 46.9545 24.0354C47.7535 24.4719 48.6494 24.7007 49.5598 24.7007C50.4703 24.7007 51.3662 24.4719 52.1652 24.0354ZM47.8213 21.7073C47.3305 21.2033 47.0852 20.4541 47.0855 19.4597C47.0858 18.4652 47.331 17.7161 47.8213 17.2121C48.0457 16.9735 48.3167 16.7833 48.6174 16.6533C48.9181 16.5233 49.2423 16.4562 49.5699 16.4562C49.8976 16.4562 50.2217 16.5233 50.5225 16.6533C50.8232 16.7833 51.0941 16.9735 51.3186 17.2121C51.8158 17.7161 52.0644 18.4652 52.0644 19.4597C52.0644 20.4541 51.8158 21.2033 51.3186 21.7073C51.0941 21.9472 50.8225 22.1383 50.5207 22.2684C50.2189 22.3984 49.8935 22.4648 49.5649 22.4632C49.2376 22.4654 48.9135 22.3993 48.6133 22.2691C48.313 22.1389 48.0433 21.9477 47.8213 21.7073ZM64.421 24.0354C65.1923 23.6 65.83 22.9623 66.2654 22.191C66.7279 21.3563 66.9609 20.4138 66.9407 19.4597C66.9609 18.5056 66.7279 17.5631 66.2654 16.7283C65.8319 15.959 65.198 15.3216 64.4311 14.8839C63.6339 14.4475 62.7396 14.2187 61.8308 14.2187C60.9219 14.2187 60.0276 14.4475 59.2304 14.8839C58.462 15.323 57.8251 15.9599 57.386 16.7283C56.9171 17.561 56.6804 18.5043 56.7007 19.4597C56.6803 20.4138 56.9133 21.3563 57.3759 22.191C57.8093 22.9604 58.4433 23.5978 59.2103 24.0354C60.0093 24.4719 60.9052 24.7007 61.8156 24.7007C62.7261 24.7007 63.622 24.4719 64.421 24.0354ZM60.077 21.7073C59.5864 21.2033 59.3412 20.4541 59.3413 19.4597C59.3414 18.4652 59.5867 17.7161 60.077 17.2121C60.3015 16.9735 60.5725 16.7833 60.8732 16.6533C61.1739 16.5233 61.4981 16.4562 61.8257 16.4562C62.1533 16.4562 62.4775 16.5233 62.7782 16.6533C63.079 16.7833 63.3499 16.9735 63.5744 17.2121C64.0716 17.7161 64.3202 18.4652 64.3202 19.4597C64.3202 20.4541 64.0716 21.2033 63.5744 21.7073C63.3499 21.9473 63.0783 22.1383 62.7765 22.2684C62.4747 22.3985 62.1493 22.4648 61.8207 22.4632C61.4934 22.4654 61.1692 22.3994 60.8689 22.2692C60.5686 22.139 60.2987 21.9475 60.0766 21.707L60.077 21.7073ZM71.8591 24.4588V19.4395L75.9108 24.4588H79.136L74.3788 19.0162L78.4708 14.4606H75.4069L71.8591 18.5123V9.94531H69.279V24.4588H71.8591ZM83.3187 12.4852C83.4664 12.3499 83.5833 12.1846 83.6616 12.0003C83.7398 11.8159 83.7776 11.617 83.7723 11.4168C83.7781 11.2181 83.7406 11.0204 83.6623 10.8376C83.5839 10.6549 83.4667 10.4914 83.3187 10.3585C82.9915 10.0913 82.5821 9.94537 82.1597 9.94537C81.7372 9.94537 81.3278 10.0913 81.0006 10.3585C80.8526 10.4914 80.7354 10.6549 80.6571 10.8376C80.5787 11.0204 80.5412 11.2181 80.5471 11.4168C80.5418 11.617 80.5795 11.8159 80.6578 12.0003C80.736 12.1846 80.8529 12.3499 81.0006 12.4852C81.3249 12.7583 81.7353 12.9082 82.1594 12.9082C82.5834 12.9082 82.9938 12.7583 83.3181 12.4852H83.3187ZM83.4497 24.4588V14.4606H80.8696V24.4588H83.4497ZM88.7713 24.4588V19.2984C88.7713 18.3846 89.0032 17.6724 89.4668 17.1617C89.6904 16.9118 89.9659 16.7137 90.274 16.5814C90.5822 16.4491 90.9155 16.3857 91.2507 16.3957C91.9898 16.3957 92.5341 16.6242 92.8835 17.0811C93.2329 17.538 93.4076 18.1965 93.4076 19.0565V24.4588H95.9878V18.8146C95.9878 17.3095 95.6451 16.1673 94.9597 15.3879C94.2744 14.6084 93.3135 14.2187 92.0772 14.2187C91.3535 14.2009 90.6388 14.3822 90.011 14.7428C89.4404 15.0777 88.9757 15.5668 88.6706 16.1538L88.469 14.4606H86.1912V24.4588H88.7713ZM104.887 20.9917C105.469 20.6969 105.955 20.2424 106.288 19.6814C106.591 19.1455 106.757 18.5431 106.771 17.9277C106.785 17.3123 106.647 16.703 106.369 16.1538L108.082 16.0329V14.4606H104.293C103.785 14.2956 103.254 14.2139 102.72 14.2187C101.959 14.1962 101.204 14.3624 100.523 14.7025C99.9456 14.9978 99.462 15.4488 99.1272 16.0045C98.7924 16.5602 98.6196 17.1984 98.6284 17.8471C98.6144 18.3465 98.7121 18.8427 98.9144 19.2996C99.1167 19.7564 99.4184 20.1623 99.7975 20.4877L98.0438 22.3422V22.8058C98.2019 22.9623 98.374 23.104 98.5578 23.2291C98.7777 23.3775 99.0104 23.5057 99.2533 23.6121C98.3798 24.2706 97.943 25.05 97.943 25.9504C97.9207 26.4305 98.0312 26.9075 98.2624 27.3289C98.4936 27.7503 98.8364 28.0999 99.2533 28.3391C100.127 28.8699 101.276 29.1353 102.7 29.1353C103.748 29.1353 104.608 28.9707 105.28 28.6415C105.892 28.3649 106.41 27.9167 106.772 27.3514C107.087 26.8464 107.255 26.2634 107.256 25.6682C107.256 24.7678 106.953 24.0623 106.349 23.5517C105.744 23.041 104.776 22.7252 103.446 22.6043C102.573 22.5236 101.941 22.443 101.551 22.3624C101.23 22.3046 100.918 22.2028 100.624 22.06L101.37 21.3142C101.811 21.4248 102.265 21.479 102.72 21.4754C103.471 21.494 104.215 21.3279 104.886 20.9917H104.887ZM101.39 19.0767C101.23 18.9183 101.103 18.7299 101.017 18.5224C100.93 18.3148 100.886 18.0921 100.886 17.8672C100.886 17.6424 100.93 17.4197 101.017 17.2121C101.103 17.0045 101.23 16.8161 101.39 16.6578C101.768 16.3614 102.24 16.2111 102.72 16.2345C103.19 16.2165 103.651 16.3666 104.02 16.6578C104.183 16.8145 104.312 17.0024 104.401 17.2102C104.489 17.418 104.534 17.6414 104.534 17.8672C104.534 18.093 104.489 18.3165 104.401 18.5243C104.312 18.7321 104.183 18.92 104.02 19.0767C103.651 19.3679 103.19 19.518 102.72 19.5C102.24 19.5233 101.768 19.373 101.39 19.0767H101.39ZM100.553 24.9022C100.771 24.6033 101.058 24.3614 101.39 24.1967C101.86 24.2773 102.371 24.3378 102.922 24.3781C103.701 24.4319 104.222 24.5797 104.484 24.8216C104.611 24.9355 104.712 25.0755 104.78 25.2321C104.848 25.3887 104.881 25.5581 104.877 25.7287C104.879 25.9429 104.824 26.1538 104.718 26.3397C104.612 26.5257 104.458 26.6801 104.272 26.787C103.798 27.0679 103.251 27.2045 102.7 27.18C102.11 27.1986 101.525 27.0704 100.997 26.8071C100.784 26.7088 100.605 26.5504 100.482 26.3517C100.358 26.1529 100.295 25.9223 100.301 25.6884C100.305 25.4072 100.392 25.1334 100.552 24.9022H100.553Z" fill="#1C293E"/>
<path fill-rule="evenodd" clip-rule="evenodd" d="M37.934 24.4588C39.4122 24.4588 40.5544 24.0959 41.3608 23.3702C41.7525 23.0268 42.0639 22.6013 42.2729 22.1241C42.4819 21.6469 42.5834 21.1295 42.5702 20.6087C42.5822 19.7962 42.3034 19.0062 41.7841 18.3813C41.2828 17.7567 40.5752 17.3315 39.7885 17.1819C40.4627 17.0007 41.0689 16.6258 41.5321 16.1034C42.0092 15.5726 42.2477 14.8638 42.2477 13.9768C42.2611 13.4829 42.164 12.9921 41.9634 12.5405C41.7629 12.0889 41.464 11.6878 41.0886 11.3664C40.3159 10.6878 39.1972 10.3485 37.7324 10.3485H32.0681V24.4588H37.934ZM34.6483 12.4247H37.3091C38.0751 12.4247 38.6496 12.596 39.0326 12.9387C39.2251 13.1158 39.3764 13.3332 39.4757 13.5753C39.575 13.8173 39.6198 14.0783 39.607 14.3397C39.623 14.6068 39.5787 14.874 39.4775 15.1217C39.3764 15.3695 39.2208 15.5913 39.0225 15.7708C38.6328 16.1068 38.0751 16.2748 37.3494 16.2748H34.6483V12.4247ZM34.6483 18.2099H37.4905C38.243 18.2099 38.8411 18.3981 39.2845 18.7743C39.5059 18.9656 39.6809 19.2047 39.7961 19.4737C39.9114 19.7426 39.9639 20.0342 39.9497 20.3265C39.9653 20.6086 39.9162 20.8906 39.8061 21.1509C39.6961 21.4111 39.528 21.6428 39.3148 21.8282C38.8914 22.1843 38.2968 22.3624 37.5308 22.3624H34.6483V18.2099ZM52.1652 24.0354C52.9364 23.5999 53.5741 22.9622 54.0096 22.191C54.472 21.3562 54.705 20.4138 54.6849 19.4597C54.705 18.5056 54.472 17.5632 54.0096 16.7283C53.576 15.9591 52.9421 15.3218 52.1753 14.8839C51.3781 14.4475 50.4838 14.2187 49.575 14.2187C48.6661 14.2187 47.7718 14.4475 46.9746 14.8839C46.2061 15.3229 45.5692 15.9598 45.1302 16.7283C44.6612 17.561 44.4245 18.5043 44.4449 19.4597C44.4244 20.4138 44.6574 21.3563 45.1201 22.191C45.5534 22.9605 46.1874 23.598 46.9545 24.0354C47.7535 24.4719 48.6494 24.7007 49.5598 24.7007C50.4703 24.7007 51.3662 24.4719 52.1652 24.0354ZM47.8213 21.7073C47.3305 21.2033 47.0852 20.4541 47.0855 19.4597C47.0858 18.4652 47.331 17.7161 47.8213 17.2121C48.0457 16.9735 48.3167 16.7833 48.6174 16.6533C48.9181 16.5233 49.2423 16.4562 49.5699 16.4562C49.8976 16.4562 50.2217 16.5233 50.5225 16.6533C50.8232 16.7833 51.0941 16.9735 51.3186 17.2121C51.8158 17.7161 52.0644 18.4652 52.0644 19.4597C52.0644 20.4541 51.8158 21.2033 51.3186 21.7073C51.0941 21.9472 50.8225 22.1383 50.5207 22.2684C50.2189 22.3984 49.8935 22.4648 49.5649 22.4632C49.2376 22.4654 48.9135 22.3993 48.6133 22.2691C48.313 22.1389 48.0433 21.9477 47.8213 21.7073ZM64.421 24.0354C65.1923 23.6 65.83 22.9623 66.2654 22.191C66.7279 21.3563 66.9609 20.4138 66.9407 19.4597C66.9609 18.5056 66.7279 17.5631 66.2654 16.7283C65.8319 15.959 65.198 15.3216 64.4311 14.8839C63.6339 14.4475 62.7396 14.2187 61.8308 14.2187C60.9219 14.2187 60.0276 14.4475 59.2304 14.8839C58.462 15.323 57.8251 15.9599 57.386 16.7283C56.9171 17.561 56.6804 18.5043 56.7007 19.4597C56.6803 20.4138 56.9133 21.3563 57.3759 22.191C57.8093 22.9604 58.4433 23.5978 59.2103 24.0354C60.0093 24.4719 60.9052 24.7007 61.8156 24.7007C62.7261 24.7007 63.622 24.4719 64.421 24.0354ZM60.077 21.7073C59.5864 21.2033 59.3412 20.4541 59.3413 19.4597C59.3414 18.4652 59.5867 17.7161 60.077 17.2121C60.3015 16.9735 60.5725 16.7833 60.8732 16.6533C61.1739 16.5233 61.4981 16.4562 61.8257 16.4562C62.1533 16.4562 62.4775 16.5233 62.7782 16.6533C63.079 16.7833 63.3499 16.9735 63.5744 17.2121C64.0716 17.7161 64.3202 18.4652 64.3202 19.4597C64.3202 20.4541 64.0716 21.2033 63.5744 21.7073C63.3499 21.9473 63.0783 22.1383 62.7765 22.2684C62.4747 22.3985 62.1493 22.4648 61.8207 22.4632C61.4934 22.4654 61.1692 22.3994 60.8689 22.2692C60.5686 22.139 60.2987 21.9475 60.0766 21.707L60.077 21.7073ZM71.8591 24.4588V19.4395L75.9108 24.4588H79.136L74.3788 19.0162L78.4708 14.4606H75.4069L71.8591 18.5123V9.94531H69.279V24.4588H71.8591ZM83.3187 12.4852C83.4664 12.3499 83.5833 12.1846 83.6616 12.0003C83.7398 11.8159 83.7776 11.617 83.7723 11.4168C83.7781 11.2181 83.7406 11.0204 83.6623 10.8376C83.5839 10.6549 83.4667 10.4914 83.3187 10.3585C82.9915 10.0913 82.5821 9.94537 82.1597 9.94537C81.7372 9.94537 81.3278 10.0913 81.0006 10.3585C80.8526 10.4914 80.7354 10.6549 80.6571 10.8376C80.5787 11.0204 80.5412 11.2181 80.5471 11.4168C80.5418 11.617 80.5795 11.8159 80.6578 12.0003C80.736 12.1846 80.8529 12.3499 81.0006 12.4852C81.3249 12.7583 81.7353 12.9082 82.1594 12.9082C82.5834 12.9082 82.9938 12.7583 83.3181 12.4852H83.3187ZM83.4497 24.4588V14.4606H80.8696V24.4588H83.4497ZM88.7713 24.4588V19.2984C88.7713 18.3846 89.0032 17.6724 89.4668 17.1617C89.6904 16.9118 89.9659 16.7137 90.274 16.5814C90.5822 16.4491 90.9155 16.3857 91.2507 16.3957C91.9898 16.3957 92.5341 16.6242 92.8835 17.0811C93.2329 17.538 93.4076 18.1965 93.4076 19.0565V24.4588H95.9878V18.8146C95.9878 17.3095 95.6451 16.1673 94.9597 15.3879C94.2744 14.6084 93.3135 14.2187 92.0772 14.2187C91.3535 14.2009 90.6388 14.3822 90.011 14.7428C89.4404 15.0777 88.9757 15.5668 88.6706 16.1538L88.469 14.4606H86.1912V24.4588H88.7713ZM104.887 20.9917C105.469 20.6969 105.955 20.2424 106.288 19.6814C106.591 19.1455 106.757 18.5431 106.771 17.9277C106.785 17.3123 106.647 16.703 106.369 16.1538L108.082 16.0329V14.4606H104.293C103.785 14.2956 103.254 14.2139 102.72 14.2187C101.959 14.1962 101.204 14.3624 100.523 14.7025C99.9456 14.9978 99.462 15.4488 99.1272 16.0045C98.7924 16.5602 98.6196 17.1984 98.6284 17.8471C98.6144 18.3465 98.7121 18.8427 98.9144 19.2996C99.1167 19.7564 99.4184 20.1623 99.7975 20.4877L98.0438 22.3422V22.8058C98.2019 22.9623 98.374 23.104 98.5578 23.2291C98.7777 23.3775 99.0104 23.5057 99.2533 23.6121C98.3798 24.2706 97.943 25.05 97.943 25.9504C97.9207 26.4305 98.0312 26.9075 98.2624 27.3289C98.4936 27.7503 98.8364 28.0999 99.2533 28.3391C100.127 28.8699 101.276 29.1353 102.7 29.1353C103.748 29.1353 104.608 28.9707 105.28 28.6415C105.892 28.3649 106.41 27.9167 106.772 27.3514C107.087 26.8464 107.255 26.2634 107.256 25.6682C107.256 24.7678 106.953 24.0623 106.349 23.5517C105.744 23.041 104.776 22.7252 103.446 22.6043C102.573 22.5236 101.941 22.443 101.551 22.3624C101.23 22.3046 100.918 22.2028 100.624 22.06L101.37 21.3142C101.811 21.4248 102.265 21.479 102.72 21.4754C103.471 21.494 104.215 21.3279 104.886 20.9917H104.887ZM101.39 19.0767C101.23 18.9183 101.103 18.7299 101.017 18.5224C100.93 18.3148 100.886 18.0921 100.886 17.8672C100.886 17.6424 100.93 17.4197 101.017 17.2121C101.103 17.0045 101.23 16.8161 101.39 16.6578C101.768 16.3614 102.24 16.2111 102.72 16.2345C103.19 16.2165 103.651 16.3666 104.02 16.6578C104.183 16.8145 104.312 17.0024 104.401 17.2102C104.489 17.418 104.534 17.6414 104.534 17.8672C104.534 18.093 104.489 18.3165 104.401 18.5243C104.312 18.7321 104.183 18.92 104.02 19.0767C103.651 19.3679 103.19 19.518 102.72 19.5C102.24 19.5233 101.768 19.373 101.39 19.0767H101.39ZM100.553 24.9022C100.771 24.6033 101.058 24.3614 101.39 24.1967C101.86 24.2773 102.371 24.3378 102.922 24.3781C103.701 24.4319 104.222 24.5797 104.484 24.8216C104.611 24.9355 104.712 25.0755 104.78 25.2321C104.848 25.3887 104.881 25.5581 104.877 25.7287C104.879 25.9429 104.824 26.1538 104.718 26.3397C104.612 26.5257 104.458 26.6801 104.272 26.787C103.798 27.0679 103.251 27.2045 102.7 27.18C102.11 27.1986 101.525 27.0704 100.997 26.8071C100.784 26.7088 100.605 26.5504 100.482 26.3517C100.358 26.1529 100.295 25.9223 100.301 25.6884C100.305 25.4072 100.392 25.1334 100.552 24.9022H100.553Z" stroke="#1C293E" stroke-width="0.6" mask="url(#path-2-outside-1_23_49)"/>
</svg>
