<svg width="161" height="31" viewBox="0 0 161 31" fill="none" xmlns="http://www.w3.org/2000/svg">
<g clip-path="url(#clip0_23_64)">
<path fill-rule="evenodd" clip-rule="evenodd" d="M28.0031 4.01176C27.1311 4.01176 26.356 4.56511 26.0728 5.38933L26.0728 5.38941L22.3084 16.3415C22.3044 16.3544 22.3 16.3672 22.2952 16.3798L21.7649 17.9228L21.7648 17.9229C21.517 18.6443 21.0374 19.2383 20.4266 19.6334C21.1669 20.2403 21.6391 21.162 21.6391 22.1939C21.6391 23.2762 21.1196 24.2372 20.3162 24.8409C22.0572 25.0851 23.8805 25.4311 25.7696 25.9048C26.1131 25.991 26.3218 26.3393 26.2357 26.6829C26.1495 27.0265 25.8012 27.2352 25.4576 27.1491C18.62 25.4345 12.6699 25.4351 8.43296 25.8631C6.31477 26.0771 4.62622 26.3978 3.47112 26.6637C2.89364 26.7967 2.44972 26.9159 2.15237 27.0011C2.0037 27.0437 1.89169 27.0778 1.81797 27.1009C1.78111 27.1124 1.75383 27.1212 1.73632 27.1269L1.71742 27.1331L1.71352 27.1344L1.71335 27.1345L1.71304 27.1346C1.37759 27.2479 1.01373 27.0679 0.900225 26.7325C0.786686 26.397 0.96665 26.0329 1.30218 25.9194L1.50777 26.5269C1.30218 25.9194 1.30244 25.9193 1.30273 25.9192L1.3035 25.9189L1.30576 25.9182L1.31309 25.9157L1.33892 25.9073C1.36108 25.9 1.3931 25.8897 1.43477 25.8767C1.51811 25.8506 1.64005 25.8135 1.79897 25.768C2.11679 25.6769 2.58261 25.552 3.18334 25.4137C4.04906 25.2144 5.19544 24.9872 6.5833 24.7935C5.81509 24.1875 5.32195 23.2483 5.32195 22.1939C5.32195 20.6442 6.38712 19.3432 7.82529 18.9834C7.92462 18.9202 8.04249 18.8836 8.1689 18.8836H18.6216C19.4926 18.8836 20.2686 18.3301 20.5517 17.5061L20.5517 17.5059L20.7966 16.7935H7.65592C6.87913 16.7935 6.22605 16.2568 6.02551 15.521L6.02547 15.5208L6.02539 15.5205L3.64418 6.79822L3.64411 6.79796L3.64408 6.79785C3.42449 5.99448 3.99226 5.11865 4.88717 5.11865H22.8856C23.2398 5.11865 23.527 5.40581 23.527 5.76003C23.527 6.11426 23.2398 6.40141 22.8856 6.40141H4.89277C4.89181 6.40242 4.89064 6.40379 4.88935 6.4056C4.88044 6.41799 4.87515 6.43661 4.88145 6.45965L4.88155 6.46002L7.26298 15.1831L7.2631 15.1835C7.32092 15.3959 7.4928 15.5108 7.65592 15.5108H21.2375L22.0804 13.0584H8.89693C8.5427 13.0584 8.25555 12.7712 8.25555 12.417C8.25555 12.0628 8.5427 11.7756 8.89693 11.7756H22.5213L23.1898 9.83086H7.48384C7.12962 9.83086 6.84246 9.5437 6.84246 9.18948C6.84246 8.83525 7.12962 8.5481 7.48384 8.5481H23.6224L23.6307 8.54815L24.8597 4.97252L24.8597 4.97244C25.321 3.63012 26.5834 2.729 28.0031 2.729H31.137C31.4912 2.729 31.7783 3.01616 31.7783 3.37038C31.7783 3.72461 31.4912 4.01176 31.137 4.01176H28.0031ZM11.1097 24.3867C12.571 24.325 14.1663 24.3229 15.8748 24.4128C15.344 23.8259 15.0207 23.0476 15.0207 22.1939C15.0207 21.43 15.2795 20.7265 15.7142 20.1664H11.2469C11.6817 20.7265 11.9405 21.43 11.9405 22.1939C11.9405 23.0351 11.6267 23.8029 11.1097 24.3867ZM8.63122 20.1673C7.51203 20.1673 6.60471 21.0746 6.60471 22.1939C6.60471 23.3131 7.51198 24.2203 8.63122 24.2203C9.75047 24.2203 10.6578 23.313 10.6578 22.1939C10.6578 21.0746 9.75043 20.1673 8.63122 20.1673ZM8.63136 21.2741C8.12348 21.2741 7.71156 21.6857 7.71156 22.1939C7.71156 22.7019 8.12348 23.1136 8.63136 23.1136C9.13924 23.1136 9.55115 22.7019 9.55115 22.1939C9.55115 21.6857 9.13924 21.2741 8.63136 21.2741ZM8.78053 22.1939C8.78053 22.2763 8.71363 22.3431 8.63136 22.3431C8.54908 22.3431 8.48218 22.2763 8.48218 22.1939C8.48218 22.1113 8.54908 22.0446 8.63136 22.0446C8.71364 22.0446 8.78053 22.1113 8.78053 22.1939ZM18.33 20.1673C17.2107 20.1673 16.3034 21.0746 16.3034 22.1939C16.3034 23.3131 17.2107 24.2203 18.33 24.2203C19.4491 24.2203 20.3564 23.3131 20.3564 22.1939C20.3564 21.0746 19.4491 20.1673 18.33 20.1673ZM18.3301 21.2741C17.8221 21.2741 17.4103 21.6859 17.4103 22.1939C17.4103 22.7019 17.8221 23.1137 18.3301 23.1137C18.8379 23.1137 19.2499 22.702 19.2499 22.1939C19.2499 21.6858 18.8379 21.2741 18.3301 21.2741ZM18.4793 22.1939C18.4793 22.2763 18.4125 22.3431 18.3301 22.3431C18.2477 22.3431 18.1809 22.2764 18.1809 22.1939C18.1809 22.1114 18.2477 22.0447 18.3301 22.0447C18.4125 22.0447 18.4793 22.1115 18.4793 22.1939Z" fill="#0AAD0A"/>
<path fill-rule="evenodd" clip-rule="evenodd" d="M120.026 12.874H116.035C115.962 12.3577 115.814 11.8991 115.589 11.4983C115.364 11.0914 115.076 10.7452 114.723 10.4597C114.371 10.1742 113.964 9.95559 113.502 9.80375C113.047 9.65191 112.552 9.57599 112.017 9.57599C111.052 9.57599 110.211 9.8159 109.494 10.2957C108.777 10.7694 108.221 11.4618 107.827 12.3729C107.432 13.2779 107.234 14.3772 107.234 15.6709C107.234 17.001 107.432 18.1186 107.827 19.0236C108.228 19.9285 108.786 20.6118 109.503 21.0734C110.22 21.535 111.049 21.7658 111.99 21.7658C112.519 21.7658 113.007 21.696 113.457 21.5563C113.912 21.4166 114.316 21.2131 114.669 20.9459C115.021 20.6726 115.312 20.3415 115.543 19.9528C115.78 19.5641 115.944 19.1207 116.035 18.6227L120.026 18.6409C119.922 19.4973 119.664 20.3233 119.251 21.119C118.844 21.9086 118.295 22.6161 117.602 23.2417C116.916 23.8612 116.096 24.3532 115.142 24.7176C114.195 25.076 113.123 25.2551 111.926 25.2551C110.262 25.2551 108.774 24.8786 107.462 24.1254C106.156 23.3723 105.124 22.2821 104.365 20.8548C103.612 19.4275 103.235 17.6995 103.235 15.6709C103.235 13.6362 103.618 11.9052 104.383 10.4779C105.148 9.05062 106.187 7.96343 107.499 7.21637C108.811 6.46324 110.286 6.08667 111.926 6.08667C113.007 6.08667 114.01 6.23851 114.933 6.54219C115.862 6.84588 116.685 7.28925 117.402 7.87233C118.118 8.44932 118.702 9.15691 119.151 9.99507C119.607 10.8332 119.898 11.7929 120.026 12.874ZM37.0347 24.9999V6.34155H49.3885V9.594H40.9795V14.0399H48.5686V17.2924H40.9795V24.9999H37.0347ZM50.9741 25.0001V11.0063H54.7367V13.4479H54.8825C55.1376 12.5794 55.5658 11.9234 56.1671 11.4801C56.7684 11.0306 57.4608 10.8059 58.2443 10.8059C58.4386 10.8059 58.6482 10.818 58.8729 10.8423C59.0976 10.8666 59.295 10.9 59.4651 10.9425V14.3863C59.2829 14.3317 59.0308 14.2831 58.7089 14.2405C58.387 14.198 58.0924 14.1768 57.8252 14.1768C57.2543 14.1768 56.7441 14.3013 56.2946 14.5503C55.8513 14.7933 55.499 15.1334 55.2378 15.5707C54.9827 16.008 54.8552 16.5121 54.8552 17.083V25.0001H50.9741ZM62.7109 24.3987C63.7495 24.9817 64.9885 25.2733 66.428 25.2733C67.582 25.2733 68.5993 25.0971 69.48 24.7449C70.3668 24.3865 71.0895 23.8885 71.6483 23.2507C72.2131 22.6069 72.5867 21.8538 72.7689 20.9913L69.1793 20.7545C69.0457 21.1067 68.8514 21.4043 68.5963 21.6473C68.3412 21.8902 68.0345 22.0724 67.6761 22.1939C67.3178 22.3154 66.923 22.3761 66.4917 22.3761C65.8419 22.3761 65.2801 22.2395 64.8063 21.9662C64.3326 21.6928 63.9651 21.3041 63.7039 20.8C63.4488 20.2959 63.3213 19.6976 63.3213 19.0052V18.9961H72.8509V17.9302C72.8509 16.7398 72.6839 15.7012 72.3498 14.8144C72.0158 13.9216 71.5481 13.1806 70.9468 12.5914C70.3516 12.0023 69.6531 11.562 68.8514 11.2704C68.0557 10.9728 67.1963 10.824 66.2731 10.824C64.9004 10.824 63.7039 11.1277 62.6836 11.7351C61.6693 12.3424 60.8827 13.1897 60.3239 14.2769C59.7652 15.3641 59.4858 16.6274 59.4858 18.0669C59.4858 19.5428 59.7652 20.8213 60.3239 21.9024C60.8827 22.9774 61.6784 23.8095 62.7109 24.3987ZM63.325 16.591C63.3484 16.0885 63.4778 15.6299 63.713 15.2153C63.9681 14.7597 64.3204 14.3984 64.7699 14.1311C65.2254 13.8578 65.7477 13.7211 66.3369 13.7211C66.9017 13.7211 67.3967 13.8457 67.8219 14.0947C68.2531 14.3376 68.5902 14.6747 68.8331 15.1059C69.0761 15.5372 69.1976 16.0322 69.1976 16.591H63.325ZM86.2569 14.9966L82.7038 15.2153C82.643 14.9116 82.5125 14.6383 82.312 14.3953C82.1116 14.1463 81.8475 13.9489 81.5194 13.8031C81.1975 13.6513 80.8118 13.5754 80.3624 13.5754C79.7611 13.5754 79.2539 13.7029 78.8409 13.958C78.4279 14.207 78.2214 14.5411 78.2214 14.9602C78.2214 15.2942 78.355 15.5767 78.6223 15.8075C78.8895 16.0383 79.3481 16.2235 79.998 16.3632L82.5307 16.8734C83.8912 17.1528 84.9055 17.6022 85.5736 18.2217C86.2417 18.8413 86.5757 19.6551 86.5757 20.6634C86.5757 21.5805 86.3055 22.3852 85.7649 23.0776C85.2304 23.77 84.4955 24.3106 83.5602 24.6993C82.6309 25.0819 81.5589 25.2733 80.3442 25.2733C78.4917 25.2733 77.0158 24.8876 75.9164 24.1162C74.8232 23.3388 74.1824 22.282 73.9941 20.9458L77.8114 20.7453C77.9268 21.3102 78.2062 21.7414 78.6496 22.039C79.093 22.3306 79.6609 22.4763 80.3533 22.4763C81.0335 22.4763 81.5801 22.3458 81.9932 22.0846C82.4122 21.8173 82.6248 21.4742 82.6309 21.0551C82.6248 20.7028 82.476 20.4143 82.1845 20.1896C81.8929 19.9588 81.4435 19.7827 80.8361 19.6612L78.4127 19.1783C77.0462 18.905 76.0288 18.4313 75.3607 17.7571C74.6987 17.0829 74.3677 16.2235 74.3677 15.1788C74.3677 14.2799 74.6106 13.5055 75.0965 12.8557C75.5885 12.2058 76.2778 11.7047 77.1646 11.3524C78.0574 11.0001 79.1021 10.824 80.2986 10.824C82.066 10.824 83.4569 11.1975 84.4712 11.9446C85.4916 12.6917 86.0868 13.709 86.2569 14.9966ZM92.131 24.9999V16.9097C92.1371 16.3084 92.2525 15.7952 92.4772 15.37C92.708 14.9388 93.0239 14.6108 93.4247 14.3861C93.8317 14.1614 94.2993 14.049 94.8278 14.049C95.6173 14.049 96.2308 14.2889 96.6681 14.7688C97.1115 15.2486 97.3301 15.9197 97.324 16.7822V24.9999H101.205V16.0898C101.211 14.9965 101.011 14.0581 100.604 13.2746C100.203 12.4851 99.6381 11.8807 98.9093 11.4616C98.1865 11.0365 97.3392 10.8239 96.3674 10.8239C95.3045 10.8239 94.4208 11.0608 93.7163 11.5345C93.0117 12.0022 92.5015 12.649 92.1857 13.4751H92.0217V6.34155H88.25V24.9999H92.131ZM123.615 24.7995C124.314 25.1093 125.109 25.2642 126.002 25.2642C126.695 25.2642 127.305 25.1731 127.833 24.9908C128.362 24.8026 128.814 24.5444 129.191 24.2164C129.568 23.8824 129.868 23.4967 130.093 23.0594H130.202V25H133.883V15.5615C133.883 14.7294 133.722 14.0157 133.4 13.4205C133.078 12.8192 132.638 12.3272 132.079 11.9446C131.526 11.562 130.892 11.2795 130.175 11.0973C129.464 10.9151 128.72 10.824 127.943 10.824C126.825 10.824 125.841 10.9941 124.991 11.3342C124.147 11.6682 123.457 12.1481 122.923 12.7737C122.388 13.3932 122.03 14.1281 121.848 14.9784L125.437 15.2699C125.571 14.8083 125.844 14.4257 126.257 14.122C126.67 13.8123 127.226 13.6574 127.925 13.6574C128.587 13.6574 129.097 13.8153 129.455 14.1311C129.82 14.447 130.002 14.8934 130.002 15.4704V15.525C130.002 15.8226 129.889 16.0474 129.665 16.1992C129.44 16.351 129.079 16.4664 128.581 16.5454C128.083 16.6183 127.427 16.6972 126.613 16.7823C125.92 16.8491 125.258 16.9645 124.627 17.1285C124.001 17.2925 123.442 17.5354 122.95 17.8573C122.458 18.1792 122.07 18.6044 121.784 19.1328C121.499 19.6612 121.356 20.3141 121.356 21.0915C121.356 22.0147 121.556 22.7861 121.957 23.4056C122.364 24.0191 122.917 24.4837 123.615 24.7995ZM128.626 22.2486C128.189 22.4733 127.685 22.5857 127.114 22.5857C126.519 22.5857 126.027 22.449 125.638 22.1757C125.255 21.8963 125.064 21.4924 125.064 20.964C125.064 20.5996 125.158 20.2959 125.346 20.0529C125.535 19.8039 125.799 19.6065 126.139 19.4608C126.479 19.315 126.877 19.2087 127.332 19.1419C127.545 19.1115 127.782 19.0781 128.043 19.0417C128.304 18.9992 128.565 18.9536 128.827 18.905C129.088 18.8504 129.322 18.7927 129.528 18.7319C129.741 18.6651 129.908 18.5922 130.029 18.5133V19.9983C130.029 20.4903 129.905 20.9306 129.656 21.3193C129.407 21.708 129.063 22.0178 128.626 22.2486ZM136.124 25.0001V11.0063H139.887V13.4479H140.033C140.288 12.5794 140.716 11.9234 141.317 11.4801C141.919 11.0306 142.611 10.8059 143.394 10.8059C143.589 10.8059 143.798 10.818 144.023 10.8423C144.248 10.8666 144.445 10.9 144.615 10.9425V14.3863C144.433 14.3317 144.181 14.2831 143.859 14.2405C143.537 14.198 143.243 14.1768 142.975 14.1768C142.404 14.1768 141.894 14.3013 141.445 14.5503C141.001 14.7933 140.649 15.1334 140.388 15.5707C140.133 16.008 140.005 16.5121 140.005 17.083V25.0001H136.124ZM153.997 13.9216V11.0062H151.364V7.65356H147.483V11.0062H145.57V13.9216H147.483V21.21C147.477 22.1271 147.668 22.8863 148.057 23.4876C148.446 24.0889 148.989 24.5323 149.688 24.8177C150.392 25.1032 151.212 25.2277 152.148 25.1913C152.652 25.173 153.08 25.1214 153.432 25.0364C153.784 24.9574 154.058 24.8876 154.252 24.8269L153.642 21.9388C153.544 21.957 153.405 21.9844 153.223 22.0208C153.04 22.0512 152.858 22.0664 152.676 22.0664C152.415 22.0664 152.184 22.0269 151.984 21.9479C151.789 21.869 151.637 21.7323 151.528 21.538C151.419 21.3375 151.364 21.0581 151.364 20.6998V13.9216H153.997Z" fill="#21313C"/>
</g>
<defs>
<clipPath id="clip0_23_64">
<rect width="160" height="31" fill="white" transform="translate(0.507812)"/>
</clipPath>
</defs>
</svg>
