<svg width="113" height="29" viewBox="0 0 113 29" fill="none" xmlns="http://www.w3.org/2000/svg">
<g clip-path="url(#clip0_23_92)">
<path fill-rule="evenodd" clip-rule="evenodd" d="M21.317 7.07134C22.6337 8.74945 22.0689 11.9245 21.4655 13.5408C22.1277 13.7643 22.634 14.3264 22.7784 15.0211L22.784 15.021H23.1642C23.3291 15.021 23.4629 15.1547 23.4629 15.3198V16.189C23.4629 16.3539 23.3291 16.4877 23.1642 16.4877H22.8201V18.1989C22.8201 19.2989 21.9283 20.1908 20.8282 20.1908H14.8529C13.7528 20.1908 12.8611 19.2989 12.8611 18.1989V17.3024H11.1415V18.1989C11.1415 19.2989 10.2498 20.1908 9.14969 20.1908H3.17431C2.0742 20.1908 1.18246 19.2989 1.18246 18.1989V16.4877H0.837829C0.672825 16.4877 0.539062 16.3539 0.539062 16.189V15.3198C0.539062 15.1547 0.672825 15.021 0.837829 15.021H1.21808L1.22417 15.0211C1.36578 14.3398 1.85542 13.786 2.49882 13.5541C0.727474 9.36318 2.09868 7.00878 3.33659 6.12072C3.33659 4.02936 5.88969 1.99232 9.12183 2.72563C13.2625 3.90594 14.5224 3.51483 16.0043 3.05475L16.0045 3.0547C16.6028 2.86898 17.2372 2.67202 18.112 2.56267C22.1288 2.06055 23.4808 4.69931 23.6528 6.0664C22.9792 5.67528 21.8149 6.55529 21.317 7.07134ZM12.8611 15.4285V15.8358H11.1415V15.4285C11.1415 14.3285 10.2498 13.4366 9.14969 13.4366H3.91571C3.77388 12.4675 3.51791 10.6704 3.93413 9.13555C4.3687 7.53308 5.75239 8.37356 5.99834 8.6195C6.02598 8.64714 6.06479 8.69363 6.11618 8.75519C6.62016 9.35884 8.33439 11.412 12.5984 11.3627C12.5126 11.3158 12.4097 11.2615 12.2969 11.202L12.2857 11.1961L12.2854 11.1959C11.7682 10.9232 11.043 10.5407 10.7243 10.222C10.6197 10.1174 10.7352 10.1471 11.0303 10.223L11.0305 10.223L11.0306 10.223C12.1152 10.502 15.6236 11.4044 19.5515 8.56518C19.8757 8.79301 20.2083 10.1249 19.9338 13.4366H14.8529C13.7528 13.4366 12.8611 14.3285 12.8611 15.4285ZM11.0861 3.86032C10.0449 3.49818 7.36236 3.11469 5.9527 4.5665C5.64087 4.88765 5.27369 5.48996 5.27369 5.48996C5.27369 5.48996 4.64899 6.63067 4.1601 6.14179C3.67121 5.65292 4.81196 4.18625 5.70826 3.75168C6.60456 3.31711 8.83174 2.55661 11.0861 3.86032ZM3.17431 14.7043C2.77437 14.7043 2.45009 15.0285 2.45009 15.4285V18.1989C2.45009 18.5989 2.77437 18.9232 3.17431 18.9232H9.14969C9.5496 18.9232 9.87388 18.5989 9.87388 18.1989V15.4285C9.87388 15.0285 9.5496 14.7043 9.14969 14.7043H3.17431ZM14.8529 14.7043C14.453 14.7043 14.1287 15.0285 14.1287 15.4285V18.1989C14.1287 18.5989 14.453 18.9232 14.8529 18.9232H20.8282C21.2282 18.9232 21.5525 18.5989 21.5525 18.1989V15.4285C21.5525 15.0286 21.2282 14.7043 20.8282 14.7043H14.8529ZM8.69985 17.0392C8.87986 17.0392 9.02578 16.8203 9.02578 16.5503C9.02578 16.2803 8.87986 16.0614 8.69985 16.0614C8.51984 16.0614 8.37392 16.2803 8.37392 16.5503C8.37392 16.8203 8.51984 17.0392 8.69985 17.0392ZM15.0554 16.5503C15.0554 16.8203 15.2013 17.0392 15.3814 17.0392C15.5614 17.0392 15.7072 16.8203 15.7072 16.5503C15.7072 16.2803 15.5614 16.0614 15.3814 16.0614C15.2013 16.0614 15.0554 16.2803 15.0554 16.5503ZM11.2807 19.7282C11.4708 19.9454 12.2042 20.1627 12.7474 19.7282C12.7202 19.9454 12.5409 20.38 12.0412 20.38C11.5414 20.38 11.335 19.9998 11.2807 19.7282ZM10.9094 21.7074C10.9319 21.6049 11.0334 21.5401 11.136 21.5627L13.055 21.9851C13.1576 22.0078 13.2224 22.1091 13.1998 22.2117C13.1772 22.3142 13.0759 22.3791 12.9733 22.3565L11.0542 21.934C10.9516 21.9114 10.8868 21.81 10.9094 21.7074ZM4.54503 21.0317C5.45944 22.779 8.23346 26.2628 12.0142 26.2193C16.5015 26.1678 18.8339 22.1495 19.4069 21.1624C19.4374 21.1099 19.4629 21.066 19.4835 21.0317C19.5468 20.9231 19.7061 20.7221 19.8365 20.7872C19.8908 20.8144 19.9506 20.961 19.7551 21.3304C19.7276 21.3822 19.6975 21.4398 19.6647 21.5024C19.4056 21.9973 18.9849 22.8009 18.4785 23.4761C18.8316 24.0465 19.5595 25.5241 19.6464 26.8712C18.9221 26.2737 17.1965 25.2144 16.0883 25.7576C15.9876 25.807 15.8813 25.8613 15.769 25.9186C14.3373 26.6492 11.9387 27.8732 7.85863 25.7576C7.29731 25.5404 5.80528 25.4697 4.32774 26.9255C4.36396 26.3733 4.65911 24.8994 5.54997 23.4218C5.29647 23.105 4.6754 22.205 4.2191 21.1403C4.21533 21.1309 4.21093 21.1205 4.20622 21.1095C4.16571 21.0142 4.10233 20.8651 4.21912 20.7872C4.3006 20.7329 4.40923 20.7721 4.54503 21.0317Z" fill="#754FFE"/>
<path fill-rule="evenodd" clip-rule="evenodd" d="M44.6222 10.7873H48.6315C48.1212 7.09695 44.8682 4.5 40.6493 4.5C35.7197 4.5 31.9199 8.05371 31.9199 14.1041C31.9199 20.0088 35.4737 23.6719 40.7313 23.6719C45.4423 23.6719 48.8046 20.6921 48.8046 15.7808V13.4298H40.9955V16.4004H45.0049C44.9502 18.7149 43.3738 20.1819 40.7496 20.1819C37.7881 20.1819 35.9202 17.9676 35.9202 14.0677C35.9202 10.1859 37.861 7.98993 40.7131 7.98993C42.7451 7.98993 44.121 9.03782 44.6222 10.7873ZM57.0475 23.69C60.5102 23.69 62.8428 22.0043 63.3896 19.4073L59.7994 19.1703C59.4076 20.2365 58.4053 20.7923 57.1113 20.7923C55.1704 20.7923 53.9403 19.5075 53.9403 17.4208V17.4117H63.4716V16.3456C63.4716 11.5891 60.5921 9.23824 56.8927 9.23824C52.774 9.23824 50.1041 12.1632 50.1041 16.4823C50.1041 20.9199 52.7375 23.69 57.0475 23.69ZM53.9403 15.0061C54.0224 13.4115 55.2343 12.1358 56.9564 12.1358C58.6422 12.1358 59.8085 13.3386 59.8177 15.0061H53.9403ZM77.6987 19.4073C77.152 22.0043 74.8192 23.69 71.3567 23.69C67.0467 23.69 64.4133 20.9199 64.4133 16.4823C64.4133 12.1632 67.0832 9.23824 71.2018 9.23824C74.9013 9.23824 77.7807 11.5891 77.7807 16.3456V17.4117H68.2495V17.4208C68.2495 19.5075 69.4796 20.7923 71.4205 20.7923C72.7144 20.7923 73.7167 20.2365 74.1086 19.1703L77.6987 19.4073ZM71.2656 12.1358C69.5434 12.1358 68.3315 13.4115 68.2495 15.0061H74.1267C74.1176 13.3386 72.9513 12.1358 71.2656 12.1358ZM79.2871 23.4166H83.1689V18.9699L84.2167 17.7762L88.0346 23.4166H92.5816L87.1235 15.4799L92.3173 9.42044H87.8615L83.3784 14.7328H83.1689V4.75506H79.2871V23.4166ZM98.8813 9.23824C102.417 9.23824 104.494 10.8329 104.841 13.4115L101.287 13.6302C101.095 12.7281 100.294 11.99 98.9455 11.99C97.7422 11.99 96.7946 12.5368 96.8038 13.3751C96.7946 14.0494 97.2776 14.4959 98.5807 14.7783L101.114 15.2886C103.829 15.8445 105.151 17.0563 105.16 19.0792C105.151 21.8402 102.553 23.69 98.9271 23.69C95.2184 23.69 92.9405 22.0406 92.576 19.3617L96.3942 19.1613C96.6306 20.3003 97.5516 20.8926 98.9363 20.8926C100.294 20.8926 101.196 20.3003 101.215 19.4711C101.196 18.7694 100.64 18.3229 99.4193 18.077L96.9953 17.594C94.2618 17.0473 92.9405 15.6895 92.9496 13.5938C92.9405 10.8967 95.3009 9.23824 98.8813 9.23824Z" fill="#18113C"/>
</g>
<defs>
<clipPath id="clip0_23_92">
<rect width="112" height="29" fill="white" transform="translate(0.507812)"/>
</clipPath>
</defs>
</svg>
