<svg width="108" height="25" viewBox="0 0 108 25" fill="none" xmlns="http://www.w3.org/2000/svg">
<path d="M0.862305 12.5C0.862305 6.73946 0.862305 3.85918 2.65188 2.06961C4.44146 0.280029 7.32174 0.280029 13.0823 0.280029C18.8429 0.280029 21.7231 0.280029 23.5127 2.06961C25.3023 3.85918 25.3023 6.73946 25.3023 12.5C25.3023 18.2606 25.3023 21.1409 23.5127 22.9305C21.7231 24.72 18.8429 24.72 13.0823 24.72C7.32174 24.72 4.44146 24.72 2.65188 22.9305C0.862305 21.1409 0.862305 18.2606 0.862305 12.5Z" fill="#243A5A"/>
<path d="M15.5264 16.166C15.8639 16.166 16.1436 16.4423 16.0766 16.773C15.9581 17.3571 15.6703 17.8985 15.2426 18.3262C14.6697 18.8992 13.8927 19.221 13.0824 19.221C12.2722 19.221 11.4952 18.8992 10.9222 18.3262C10.4945 17.8985 10.2067 17.3571 10.0883 16.773C10.0212 16.4423 10.301 16.166 10.6384 16.166H15.5264Z" fill="#2DF8BB"/>
<path d="M16.8108 11.1415C16.4848 11.2288 16.2852 11.5698 16.4505 11.864C16.6244 12.1736 16.865 12.4439 17.1578 12.6536C17.6174 12.983 18.1769 13.1428 18.7412 13.1058C19.3054 13.0688 19.8393 12.8374 20.252 12.4508C20.6647 12.0643 20.9306 11.5466 21.0044 10.986C21.0782 10.4254 20.9554 9.8566 20.6568 9.37641C20.3582 8.89629 19.9023 8.53452 19.3669 8.35274C18.8315 8.17097 18.2496 8.1805 17.7204 8.37969C17.3834 8.50653 17.0811 8.70529 16.8329 8.95934C16.5971 9.20075 16.7017 9.58183 16.9939 9.75053L17.3039 9.92949C17.7752 10.2017 17.6823 10.9079 17.1565 11.0488L16.8108 11.1415Z" fill="#2DF8BB"/>
<path d="M9.35382 11.1415C9.67979 11.2288 9.87941 11.5698 9.71413 11.864C9.54018 12.1736 9.29957 12.4439 9.0069 12.6536C8.5473 12.983 7.98769 13.1428 7.42349 13.1058C6.85924 13.0688 6.3253 12.8374 5.91261 12.4508C5.49992 12.0643 5.23402 11.5466 5.16022 10.986C5.08642 10.4254 5.20927 9.8566 5.50786 9.37641C5.80644 8.89629 6.26228 8.53452 6.79771 8.35274C7.33312 8.17097 7.91504 8.1805 8.44423 8.37969C8.78119 8.50653 9.08358 8.70529 9.33177 8.95934C9.56755 9.20075 9.46295 9.58183 9.17071 9.75053L8.86075 9.92949C8.38936 10.2017 8.48235 10.9079 9.00812 11.0488L9.35382 11.1415Z" fill="#2DF8BB"/>
<path d="M30.3022 21.8086V3.42579H33.2185L40.4571 14.7002H38.9729L46.1854 3.42579H49.1277V21.8086H45.0397V10.3259L45.7688 10.5081L41.0559 17.8508H38.348L33.6611 10.5081L34.3642 10.3259V21.8086H30.3022Z" fill="#243A5A"/>
<path d="M58.5378 22.095C57.1665 22.095 55.9427 21.8173 54.8664 21.2618C53.8076 20.689 52.9744 19.8992 52.3668 18.8924C51.7592 17.8856 51.4555 16.7486 51.4555 15.4814C51.4555 14.2142 51.7506 13.0859 52.3408 12.0964C52.9483 11.0896 53.7642 10.2998 54.7883 9.72698C55.8125 9.15415 56.9668 8.86773 58.2514 8.86773C59.5012 8.86773 60.6035 9.13679 61.5582 9.67491C62.5129 10.213 63.2594 10.9594 63.7975 11.9142C64.353 12.8689 64.6307 13.9625 64.6307 15.195C64.6307 15.4206 64.6133 15.6636 64.5786 15.924C64.5613 16.167 64.5179 16.4535 64.4484 16.7833L53.5385 16.8093V14.0753L62.756 14.0493L61.0375 15.195C61.0201 14.4659 60.9073 13.867 60.699 13.3983C60.4907 12.9123 60.1782 12.5478 59.7616 12.3047C59.3623 12.0444 58.8676 11.9142 58.2774 11.9142C57.6525 11.9142 57.1057 12.0617 56.637 12.3568C56.1857 12.6346 55.8299 13.0338 55.5695 13.5546C55.3265 14.0753 55.2049 14.7089 55.2049 15.4553C55.2049 16.2018 55.3351 16.844 55.5955 17.3822C55.8732 17.9029 56.2551 18.3108 56.7412 18.6059C57.2446 18.8837 57.8348 19.0225 58.5118 19.0225C59.1367 19.0225 59.7008 18.9184 60.2042 18.7101C60.7076 18.4844 61.1503 18.1546 61.5322 17.7206L63.7194 19.9078C63.0945 20.6369 62.3394 21.1837 61.4541 21.5482C60.5688 21.9128 59.5967 22.095 58.5378 22.095Z" fill="#243A5A"/>
<path d="M72.8028 22.095C71.4314 22.095 70.2076 21.8173 69.1314 21.2618C68.0725 20.689 67.2393 19.8992 66.6318 18.8924C66.0242 17.8856 65.7204 16.7486 65.7204 15.4814C65.7204 14.2142 66.0155 13.0859 66.6057 12.0964C67.2133 11.0896 68.0291 10.2998 69.0533 9.72698C70.0774 9.15415 71.2318 8.86773 72.5163 8.86773C73.7662 8.86773 74.8684 9.13679 75.8232 9.67491C76.7779 10.213 77.5243 10.9594 78.0624 11.9142C78.6179 12.8689 78.8956 13.9625 78.8956 15.195C78.8956 15.4206 78.8783 15.6636 78.8436 15.924C78.8262 16.167 78.7828 16.4535 78.7134 16.7833L67.8035 16.8093V14.0753L77.0209 14.0493L75.3024 15.195C75.285 14.4659 75.1722 13.867 74.9639 13.3983C74.7556 12.9123 74.4431 12.5478 74.0265 12.3047C73.6273 12.0444 73.1326 11.9142 72.5424 11.9142C71.9175 11.9142 71.3707 12.0617 70.902 12.3568C70.4507 12.6346 70.0948 13.0338 69.8344 13.5546C69.5914 14.0753 69.4699 14.7089 69.4699 15.4553C69.4699 16.2018 69.6001 16.844 69.8605 17.3822C70.1382 17.9029 70.5201 18.3108 71.0061 18.6059C71.5095 18.8837 72.0997 19.0225 72.7767 19.0225C73.4016 19.0225 73.9658 18.9184 74.4692 18.7101C74.9726 18.4844 75.4152 18.1546 75.7971 17.7206L77.9843 19.9078C77.3594 20.6369 76.6043 21.1837 75.719 21.5482C74.8337 21.9128 73.8616 22.095 72.8028 22.095Z" fill="#243A5A"/>
<path d="M88.9164 21.8086L84.4899 15.247L88.8904 9.15415H93.3429L88.0311 16.0021L88.1613 14.3617L93.6032 21.8086H88.9164ZM80.8186 21.8086V2.90503H84.8024V21.8086H80.8186Z" fill="#243A5A"/>
<path d="M100.566 22.095C99.2643 22.095 98.0839 21.8086 97.025 21.2358C95.9835 20.6456 95.159 19.8471 94.5514 18.8403C93.9438 17.8335 93.6401 16.7052 93.6401 15.4553C93.6401 14.2055 93.9438 13.0859 94.5514 12.0964C95.159 11.107 95.9835 10.3259 97.025 9.75302C98.0665 9.16283 99.2469 8.86773 100.566 8.86773C101.885 8.86773 103.066 9.15415 104.107 9.72698C105.149 10.2998 105.973 11.0896 106.581 12.0964C107.188 13.0859 107.492 14.2055 107.492 15.4553C107.492 16.7052 107.188 17.8335 106.581 18.8403C105.973 19.8471 105.149 20.6456 104.107 21.2358C103.066 21.8086 101.885 22.095 100.566 22.095ZM100.566 18.4757C101.139 18.4757 101.642 18.3542 102.076 18.1112C102.51 17.8508 102.84 17.495 103.066 17.0437C103.309 16.575 103.43 16.0455 103.43 15.4553C103.43 14.8651 103.309 14.3531 103.066 13.9191C102.823 13.4678 102.484 13.1206 102.05 12.8776C101.634 12.6172 101.139 12.487 100.566 12.487C100.011 12.487 99.516 12.6172 99.082 12.8776C98.648 13.1206 98.3095 13.4678 98.0665 13.9191C97.8235 14.3704 97.702 14.8912 97.702 15.4814C97.702 16.0542 97.8235 16.575 98.0665 17.0437C98.3095 17.495 98.648 17.8508 99.082 18.1112C99.516 18.3542 100.011 18.4757 100.566 18.4757Z" fill="#243A5A"/>
</svg>
