<svg width="111" height="27" viewBox="0 0 111 27" fill="none" xmlns="http://www.w3.org/2000/svg">
<path d="M13.7278 0.780029H13.2278V1.28003V3.89265C12.0601 2.02349 9.98414 0.780029 7.61781 0.780029C3.96721 0.780029 1.00781 3.73943 1.00781 7.39003C1.00781 9.75636 2.25127 11.8323 4.12043 13H1.50781H1.00781V13.5V19.61C1.00781 23.2606 3.96721 26.22 7.61781 26.22C10.3737 26.22 12.7356 24.5335 13.7279 22.1363C14.055 22.9267 14.531 23.6398 15.1206 24.2404L15.1207 24.2405L15.1638 24.284L15.1646 24.2848L15.2097 24.3295L15.2101 24.3299C16.402 25.4986 18.0362 26.22 19.8378 26.22C21.6518 26.22 23.296 25.4886 24.4899 24.3058L24.4905 24.3052L24.5108 24.2851L24.5132 24.2827L24.536 24.2596L24.5365 24.2591C25.7176 23.0655 26.4478 21.4225 26.4478 19.61C26.4478 16.8543 24.7614 14.4923 22.3642 13.5C24.7614 12.5077 26.4478 10.1458 26.4478 7.39003C26.4478 3.73942 23.4884 0.780029 19.8378 0.780029H13.7278ZM12.0058 7.39003C12.0058 9.6444 10.3058 11.5017 8.11781 11.7499V3.0302C10.3058 3.27838 12.0058 5.13567 12.0058 7.39003ZM19.8378 15.222C22.0922 15.222 23.9495 16.922 24.1976 19.11H15.478C15.7262 16.922 17.5834 15.222 19.8378 15.222ZM3.22981 19.61V15.222H12.0058V19.61C12.0058 22.0335 10.0413 23.998 7.61781 23.998C5.19439 23.998 3.22981 22.0335 3.22981 19.61ZM15.4498 3.00203H19.8378C22.2612 3.00203 24.2258 4.9666 24.2258 7.39003C24.2258 9.81347 22.2613 11.778 19.8378 11.778H15.4498V3.00203Z" fill="#5417D7" stroke="#5417D7"/>
<path d="M40.8952 23.095C39.4679 23.095 38.1538 22.8513 36.9528 22.364C35.7518 21.8766 34.6987 21.1978 33.7936 20.3275C32.9059 19.4572 32.2097 18.439 31.7049 17.2728C31.2001 16.0892 30.9478 14.8185 30.9478 13.4609C30.9478 12.1032 31.1914 10.85 31.6788 9.70119C32.1836 8.535 32.8798 7.51675 33.7675 6.64646C34.6552 5.77616 35.6996 5.10604 36.9006 4.63608C38.1016 4.14871 39.4157 3.90503 40.843 3.90503C42.2703 3.90503 43.5844 4.14871 44.7854 4.63608C45.9864 5.10604 47.0308 5.77616 47.9185 6.64646C48.8062 7.51675 49.4937 8.535 49.9811 9.70119C50.4859 10.8674 50.7383 12.1293 50.7383 13.487C50.7383 14.8446 50.4859 16.1066 49.9811 17.2728C49.4937 18.439 48.8062 19.4659 47.9185 20.3536C47.0308 21.2239 45.9864 21.9027 44.7854 22.3901C43.6018 22.8601 42.3051 23.095 40.8952 23.095ZM40.843 18.9176C41.8874 18.9176 42.7925 18.6913 43.5583 18.2388C44.3242 17.7862 44.916 17.1509 45.3337 16.3328C45.7515 15.5148 45.9603 14.5574 45.9603 13.4609C45.9603 12.6602 45.8385 11.9291 45.5948 11.2677C45.3685 10.6063 45.0291 10.0406 44.5766 9.57065C44.124 9.08328 43.5844 8.70906 42.9578 8.44797C42.3312 8.18688 41.6263 8.05634 40.843 8.05634C39.7987 8.05634 38.8935 8.28261 38.1277 8.73517C37.3618 9.17031 36.77 9.79693 36.3523 10.615C35.9345 11.4331 35.7257 12.3817 35.7257 13.4609C35.7257 14.2963 35.8388 15.0535 36.0651 15.7323C36.3088 16.3938 36.6569 16.9682 37.1094 17.4555C37.562 17.9255 38.1016 18.291 38.7282 18.5521C39.3548 18.7958 40.0597 18.9176 40.843 18.9176Z" fill="#5417D7"/>
<path d="M56.2348 22.7556V18.7349H60.6733C61.7176 18.7349 62.6227 18.5347 63.3886 18.1344C64.1719 17.734 64.7724 17.1422 65.1901 16.3589C65.6078 15.5583 65.8167 14.5923 65.8167 13.4609C65.8167 12.3469 65.5991 11.407 65.164 10.6411C64.7463 9.85785 64.1545 9.26605 63.3886 8.86571C62.6227 8.46538 61.7176 8.26521 60.6733 8.26521H56.0259V4.24444H60.6994C62.1267 4.24444 63.4408 4.47072 64.6418 4.92328C65.8428 5.35842 66.8872 5.98503 67.7749 6.80311C68.6626 7.62119 69.3501 8.59592 69.8375 9.7273C70.3423 10.8587 70.5946 12.1119 70.5946 13.487C70.5946 14.8794 70.3423 16.1414 69.8375 17.2728C69.3501 18.4041 68.6626 19.3789 67.7749 20.1969C66.8872 21.015 65.8428 21.6503 64.6418 22.1029C63.4582 22.538 62.1615 22.7556 60.7516 22.7556H56.2348ZM53.0756 22.7556V4.24444H57.7491V22.7556H53.0756Z" fill="#5417D7"/>
<path d="M80.5615 23.0428C78.995 23.0428 77.6112 22.7208 76.4102 22.0768C75.2266 21.4154 74.3041 20.5016 73.6426 19.3354C72.9812 18.1692 72.6505 16.8463 72.6505 15.3668V4.24444H77.2979V15.7062C77.2979 16.3677 77.4371 16.942 77.7156 17.4294C78.0115 17.8994 78.4032 18.2649 78.8905 18.526C79.3953 18.7697 79.9523 18.8915 80.5615 18.8915C81.1881 18.8915 81.7364 18.7697 82.2063 18.526C82.6763 18.2649 83.0505 17.8994 83.329 17.4294C83.6075 16.9595 83.7468 16.3938 83.7468 15.7323V4.24444H88.4464V15.3929C88.4464 16.8724 88.1156 18.1953 87.4542 19.3615C86.7928 20.5103 85.8703 21.4154 84.6867 22.0768C83.5205 22.7208 82.1454 23.0428 80.5615 23.0428Z" fill="#5417D7"/>
<path d="M100.431 23.095C99.0032 23.095 97.6891 22.8513 96.4881 22.364C95.2871 21.8766 94.234 21.1978 93.3289 20.3275C92.4412 19.4572 91.745 18.439 91.2402 17.2728C90.7354 16.0892 90.483 14.8185 90.483 13.4609C90.483 12.1032 90.7267 10.85 91.2141 9.70119C91.7189 8.535 92.4151 7.51675 93.3028 6.64646C94.1905 5.77616 95.2349 5.10604 96.4359 4.63608C97.6369 4.14871 98.951 3.90503 100.378 3.90503C101.806 3.90503 103.12 4.14871 104.321 4.63608C105.522 5.10604 106.566 5.77616 107.454 6.64646C108.341 7.51675 109.029 8.535 109.516 9.70119C110.021 10.8674 110.274 12.1293 110.274 13.487C110.274 14.8446 110.021 16.1066 109.516 17.2728C109.029 18.439 108.341 19.4659 107.454 20.3536C106.566 21.2239 105.522 21.9027 104.321 22.3901C103.137 22.8601 101.84 23.095 100.431 23.095ZM100.378 18.9176C101.423 18.9176 102.328 18.6913 103.094 18.2388C103.859 17.7862 104.451 17.1509 104.869 16.3328C105.287 15.5148 105.496 14.5574 105.496 13.4609C105.496 12.6602 105.374 11.9291 105.13 11.2677C104.904 10.6063 104.564 10.0406 104.112 9.57065C103.659 9.08328 103.12 8.70906 102.493 8.44797C101.867 8.18688 101.162 8.05634 100.378 8.05634C99.3339 8.05634 98.4288 8.28261 97.663 8.73517C96.8971 9.17031 96.3053 9.79693 95.8876 10.615C95.4698 11.4331 95.261 12.3817 95.261 13.4609C95.261 14.2963 95.3741 15.0535 95.6004 15.7323C95.8441 16.3938 96.1922 16.9682 96.6447 17.4555C97.0973 17.9255 97.6369 18.291 98.2635 18.5521C98.8901 18.7958 99.595 18.9176 100.378 18.9176Z" fill="#5417D7"/>
</svg>
