<svg xmlns="http://www.w3.org/2000/svg" viewBox="0 0 272.5 81.58"><defs><style>.cls-1{fill:#1c293e;}.cls-2{fill:#5454d4;}</style></defs><g id="Layer_2" data-name="Layer 2"><g id="Layer_1-2" data-name="Layer 1"><path class="cls-1" d="M36,34.54a16.7,16.7,0,0,0-4.2-2.61,20.85,20.85,0,0,0-8.4-1.65A22.2,22.2,0,0,0,3,42.58a28.27,28.27,0,0,0-3,13.2,27.83,27.83,0,0,0,3,13,23,23,0,0,0,8.3,9,22.42,22.42,0,0,0,12.1,3.3,20.37,20.37,0,0,0,8.4-1.7A18,18,0,0,0,36,76.85v3.33H53.1V31.28H36ZM27.1,65.68a9.52,9.52,0,0,1-4.9-1.3,8.93,8.93,0,0,1-3.4-3.55,10.78,10.78,0,0,1-1.2-5.15,10.25,10.25,0,0,1,1.25-5,9.23,9.23,0,0,1,8.35-4.85,9.33,9.33,0,0,1,4.95,1.3,9.09,9.09,0,0,1,3.35,3.5,10.45,10.45,0,0,1,1.2,5.1,10,10,0,0,1-2.65,7.2A9.15,9.15,0,0,1,27.1,65.68Z"/><path class="cls-1" d="M80.6,43.93a6.24,6.24,0,0,1,3.3-.65,15.69,15.69,0,0,1,5.3,1,13.09,13.09,0,0,1,5.3,3.75l9.6-9.7a21.17,21.17,0,0,0-9.2-6.45,33.57,33.57,0,0,0-12-2.15,26.31,26.31,0,0,0-10.8,2A17.05,17.05,0,0,0,65,37.43a13.74,13.74,0,0,0-2.55,8.25,14.85,14.85,0,0,0,1.65,7.4,12.06,12.06,0,0,0,4.35,4.5A28.75,28.75,0,0,0,74,60.13q2.9.94,5.55,1.6a19.66,19.66,0,0,1,4.3,1.5,2.65,2.65,0,0,1,1.65,2.45,1.86,1.86,0,0,1-1.15,1.7A7.43,7.43,0,0,1,81,68a18.41,18.41,0,0,1-7.15-1.4,17.12,17.12,0,0,1-5.75-3.9l-9.5,9.7A26.14,26.14,0,0,0,65,77.13a38.09,38.09,0,0,0,8.1,3.25,33.13,33.13,0,0,0,8.85,1.2q9.41,0,15-4.25a13.75,13.75,0,0,0,5.6-11.55,15,15,0,0,0-1.65-7.5,13.37,13.37,0,0,0-4.3-4.65,24.6,24.6,0,0,0-5.5-2.75c-1.9-.67-3.74-1.22-5.5-1.65a22.76,22.76,0,0,1-4.3-1.45Q79.6,47,79.6,45.68A2,2,0,0,1,80.6,43.93Z"/><polygon class="cls-1" points="134.5 11.08 117.1 11.08 117.1 31.28 106.3 31.28 106.3 45.78 117.1 45.78 117.1 80.18 134.5 80.18 134.5 45.78 145.3 45.78 145.3 31.28 134.5 31.28 134.5 11.08"/><path class="cls-1" d="M181.2,30.28q-7.63,0-12.4,4.12V31.28H151.4v48.9h17.4V53.58q0-4,1.9-6a6.84,6.84,0,0,1,5.3-2.05,9,9,0,0,1,3.25.55,5.62,5.62,0,0,1,2.25,1.45L191.6,34a10.85,10.85,0,0,0-4.35-2.8A18.23,18.23,0,0,0,181.2,30.28Z"/><path class="cls-2" d="M203.48,0a11.9,11.9,0,0,0-8.93,3.71A12.57,12.57,0,0,0,191,12.78a12.5,12.5,0,0,0,3.57,9.13,13,13,0,0,0,18.06,0,12.62,12.62,0,0,0,3.51-9.13,12.69,12.69,0,0,0-3.51-9.07A12,12,0,0,0,203.48,0Z"/><rect class="cls-1" x="194.8" y="31.28" width="17.5" height="48.9"/><path class="cls-1" d="M255.1,7.28V33.56a19.81,19.81,0,0,0-3.1-1.63,22.37,22.37,0,0,0-8.6-1.65,23.65,23.65,0,0,0-12.55,3.25,22.6,22.6,0,0,0-8.4,9,27.82,27.82,0,0,0-3,13.2,27.38,27.38,0,0,0,3,13,23,23,0,0,0,8.45,9,23.47,23.47,0,0,0,12.5,3.3,19.92,19.92,0,0,0,12-3.86v2.86h17.1V7.28Zm-3.6,57.15a9.64,9.64,0,0,1-5,1.25,9.5,9.5,0,0,1-4.9-1.3,8.93,8.93,0,0,1-3.4-3.55,10.78,10.78,0,0,1-1.2-5.15,10.14,10.14,0,0,1,1.25-5,9.23,9.23,0,0,1,8.35-4.85,9.38,9.38,0,0,1,5,1.3,9.09,9.09,0,0,1,3.35,3.5,10.45,10.45,0,0,1,1.2,5.1,10.67,10.67,0,0,1-1.25,5.25A9.25,9.25,0,0,1,251.5,64.43Z"/></g></g></svg>